<svg width="1280" height="820" viewBox="0 0 1280 820" xmlns="http://www.w3.org/2000/svg">
  <defs>
    <filter id="softShadow" x="-20%" y="-20%" width="140%" height="140%">
      <feDropShadow dx="0" dy="18" stdDeviation="18" flood-color="#1f2933" flood-opacity="0.14"/>
    </filter>
    <filter id="tinyShadow" x="-20%" y="-20%" width="140%" height="140%">
      <feDropShadow dx="0" dy="4" stdDeviation="6" flood-color="#1f2933" flood-opacity="0.10"/>
    </filter>
    <linearGradient id="windowTop" x1="0" x2="1" y1="0" y2="0">
      <stop offset="0" stop-color="#f9fbfc"/>
      <stop offset="1" stop-color="#eef3f5"/>
    </linearGradient>
    <marker id="arrow" viewBox="0 0 10 10" refX="9" refY="5" markerWidth="8" markerHeight="8" orient="auto-start-reverse">
      <path d="M 0 0 L 10 5 L 0 10 z" fill="#8b98a5" />
    </marker>
  </defs>
  <rect width="1280" height="820" fill="#eef2f4"/>
  
    <text x="42" y="52" font-family="Inter, -apple-system, BlinkMacSystemFont, Segoe UI, Microsoft YaHei, PingFang SC, Noto Sans CJK SC, Arial, sans-serif" font-size="24" font-weight="750" fill="#1f2933" text-anchor="start" >12 设置 - 网络发现</text>
    <text x="42" y="80" font-family="Inter, -apple-system, BlinkMacSystemFont, Segoe UI, Microsoft YaHei, PingFang SC, Noto Sans CJK SC, Arial, sans-serif" font-size="13" font-weight="400" fill="#66727c" text-anchor="start" >常规设置、发现开关、监听端口与手动连接入口。</text>
    <rect x="914" y="35" width="110" height="28" rx="14" fill="#e8f6ef" stroke="#bee6d3" stroke-width="1" />
    <text x="969" y="53.68" font-family="Inter, -apple-system, BlinkMacSystemFont, Segoe UI, Microsoft YaHei, PingFang SC, Noto Sans CJK SC, Arial, sans-serif" font-size="13" font-weight="600" fill="#147b57" text-anchor="middle" >P0 必做</text>
    <rect x="1038" y="35" width="116" height="28" rx="14" fill="#ffffff" stroke="#d8dee3" stroke-width="1" />
    <text x="1096" y="53.68" font-family="Inter, -apple-system, BlinkMacSystemFont, Segoe UI, Microsoft YaHei, PingFang SC, Noto Sans CJK SC, Arial, sans-serif" font-size="13" font-weight="600" fill="#66727c" text-anchor="middle" >源码占位</text>
    <rect x="1168" y="35" width="72" height="28" rx="14" fill="#20262d" stroke="#20262d" stroke-width="1" />
    <text x="1204" y="53.68" font-family="Inter, -apple-system, BlinkMacSystemFont, Segoe UI, Microsoft YaHei, PingFang SC, Noto Sans CJK SC, Arial, sans-serif" font-size="13" font-weight="600" fill="#fff" text-anchor="middle" >高保真</text>
  
    <rect x="42" y="104" width="1196" height="674" rx="12" fill="#ffffff" stroke="#d8dee3" stroke-width="1" filter="url(#softShadow)"/>
    <rect x="42" y="104" width="1196" height="54" rx="12" fill="url(#windowTop)" stroke="#d8dee3" stroke-width="1" />
    <line x1="42" y1="158" x2="1238" y2="158" stroke="#d8dee3" stroke-width="1" />
    <circle cx="64" cy="130" r="6" fill="#ef5f5f" stroke="none" stroke-width="1"/>
    <circle cx="84" cy="130" r="6" fill="#e6b64c" stroke="none" stroke-width="1"/>
    <circle cx="104" cy="130" r="6" fill="#55b66a" stroke="none" stroke-width="1"/>
    <text x="128" y="137" font-family="Inter, -apple-system, BlinkMacSystemFont, Segoe UI, Microsoft YaHei, PingFang SC, Noto Sans CJK SC, Arial, sans-serif" font-size="14" font-weight="720" fill="#1f2933" text-anchor="start" >烽燧 FengSui</text>
    <rect x="398" y="116" width="310" height="30" rx="6" fill="#fff" stroke="#d8dee3" stroke-width="1" />
    <g><circle cx="417.74" cy="128.74" r="4.32" fill="none" stroke="#8b98a5" stroke-width="1.8"/><line x1="421.16" y1="132.16" x2="425.12" y2="136.12" stroke="#8b98a5" stroke-width="1.8" /></g>
    <text x="436" y="136" font-family="Inter, -apple-system, BlinkMacSystemFont, Segoe UI, Microsoft YaHei, PingFang SC, Noto Sans CJK SC, Arial, sans-serif" font-size="12" font-weight="400" fill="#8b98a5" text-anchor="start" >搜索联系人 / 文件 / 消息</text>
    <circle cx="1010" cy="131" r="4" fill="#1f9d72" stroke="none" stroke-width="1"/><circle cx="1010" cy="131" r="8" fill="#1f9d72" stroke="#1f9d72" stroke-width="1" opacity=".14"/>
    <text x="1024" y="136" font-family="Inter, -apple-system, BlinkMacSystemFont, Segoe UI, Microsoft YaHei, PingFang SC, Noto Sans CJK SC, Arial, sans-serif" font-size="12" font-weight="650" fill="#1f9d72" text-anchor="start" >Lily-PC 在线</text>
    <g><path d="M 1121.04 132.88 H 1128.96 C 1127.88 131.44 1127.52 129.64 1127.52 127.48 C 1127.52 124.96 1125.72 123.88 1125 123.88 C 1124.28 123.88 1122.48 124.96 1122.48 127.48 C 1122.48 129.64 1122.12 131.44 1121.04 132.88 Z M 1123.92 134.32 C 1124.46 135.76 1125.54 135.76 1126.08 134.32" fill="none" stroke="#66727c" stroke-width="1.7" stroke-linecap="round" stroke-linejoin="round" /></g>
    <rect x="1150" y="117" width="72" height="28" rx="14" fill="#e3f4f2" stroke="#c2e4df" stroke-width="1" />
    <text x="1186" y="135.32" font-family="Inter, -apple-system, BlinkMacSystemFont, Segoe UI, Microsoft YaHei, PingFang SC, Noto Sans CJK SC, Arial, sans-serif" font-size="12" font-weight="600" fill="#0f8f8c" text-anchor="middle" >12 台在线</text>
    <rect x="42" y="158" width="260" height="620" rx="0" fill="#20262d" stroke="none" stroke-width="1" />
    <rect x="42" y="762" width="260" height="16" rx="0" fill="#20262d" stroke="none" stroke-width="1" />
    <text x="70" y="204" font-family="Inter, -apple-system, BlinkMacSystemFont, Segoe UI, Microsoft YaHei, PingFang SC, Noto Sans CJK SC, Arial, sans-serif" font-size="11" font-weight="600" fill="#9aa6b2" text-anchor="start" >本机</text>
    <text x="70" y="230" font-family="Inter, -apple-system, BlinkMacSystemFont, Segoe UI, Microsoft YaHei, PingFang SC, Noto Sans CJK SC, Arial, sans-serif" font-size="18" font-weight="760" fill="#fff" text-anchor="start" >Lily-PC</text>
    <text x="70" y="252" font-family="Inter, -apple-system, BlinkMacSystemFont, Segoe UI, Microsoft YaHei, PingFang SC, Noto Sans CJK SC, Arial, sans-serif" font-size="12" font-weight="400" fill="#9aa6b2" text-anchor="start" >研发网 · 192.168.10.24</text>
  <rect x="58" y="265" width="228" height="42" rx="6" fill="#20262d" stroke="none" stroke-width="1" /><g><rect x="78.88" y="277.6" width="12.24" height="9.36" rx="2.16" fill="none" stroke="#d7dde2" stroke-width="1.8" /><line x1="81.04" y1="286.96" x2="79.6" y2="290.2" stroke="#d7dde2" stroke-width="1.8" /></g><text x="106" y="288" font-family="Inter, -apple-system, BlinkMacSystemFont, Segoe UI, Microsoft YaHei, PingFang SC, Noto Sans CJK SC, Arial, sans-serif" font-size="14" font-weight="500" fill="#d7dde2" text-anchor="start" >消息</text><rect x="246" y="270" width="28" height="22" rx="11" fill="#393f47" stroke="#393f47" stroke-width="1" />
    <text x="260" y="284.96" font-family="Inter, -apple-system, BlinkMacSystemFont, Segoe UI, Microsoft YaHei, PingFang SC, Noto Sans CJK SC, Arial, sans-serif" font-size="11" font-weight="600" fill="#fff" text-anchor="middle" >3</text><rect x="58" y="313" width="228" height="42" rx="6" fill="#20262d" stroke="none" stroke-width="1" /><g><circle cx="82.84" cy="328.12" r="2.88" fill="none" stroke="#d7dde2" stroke-width="1.8"/><circle cx="88.24" cy="328.84" r="2.16" fill="none" stroke="#d7dde2" stroke-width="1.8"/><path d="M 78.16 336.76 C 79.6 332.8 86.08 332.8 87.52 336.76" fill="none" stroke="#d7dde2" stroke-width="1.8" stroke-linecap="round" stroke-linejoin="round" /><path d="M 86.26 335.68 C 87.52 333.16 91.12 333.52 92.2 336.4" fill="none" stroke="#d7dde2" stroke-width="1.8" stroke-linecap="round" stroke-linejoin="round" /></g><text x="106" y="336" font-family="Inter, -apple-system, BlinkMacSystemFont, Segoe UI, Microsoft YaHei, PingFang SC, Noto Sans CJK SC, Arial, sans-serif" font-size="14" font-weight="500" fill="#d7dde2" text-anchor="start" >联系人</text><rect x="58" y="361" width="228" height="42" rx="6" fill="#20262d" stroke="none" stroke-width="1" /><g><line x1="79.6" y1="376.12" x2="89.68" y2="376.12" stroke="#d7dde2" stroke-width="1.8" /><line x1="86.44" y1="373.24" x2="89.68" y2="376.12" stroke="#d7dde2" stroke-width="1.8" /><line x1="86.44" y1="379" x2="89.68" y2="376.12" stroke="#d7dde2" stroke-width="1.8" /><line x1="90.4" y1="381.88" x2="80.32" y2="381.88" stroke="#d7dde2" stroke-width="1.8" /><line x1="83.56" y1="379" x2="80.32" y2="381.88" stroke="#d7dde2" stroke-width="1.8" /><line x1="83.56" y1="384.76" x2="80.32" y2="381.88" stroke="#d7dde2" stroke-width="1.8" /></g><text x="106" y="384" font-family="Inter, -apple-system, BlinkMacSystemFont, Segoe UI, Microsoft YaHei, PingFang SC, Noto Sans CJK SC, Arial, sans-serif" font-size="14" font-weight="500" fill="#d7dde2" text-anchor="start" >传输中心</text><rect x="58" y="409" width="228" height="42" rx="6" fill="#20262d" stroke="none" stroke-width="1" /><g><path d="M 78.16 424.12 L 82.84 424.12 L 84.28 422.32 L 91.84 422.32 L 91.84 432.04 L 78.16 432.04 Z" fill="none" stroke="#d7dde2" stroke-width="1.8" stroke-linecap="round" stroke-linejoin="round" /></g><text x="106" y="432" font-family="Inter, -apple-system, BlinkMacSystemFont, Segoe UI, Microsoft YaHei, PingFang SC, Noto Sans CJK SC, Arial, sans-serif" font-size="14" font-weight="500" fill="#d7dde2" text-anchor="start" >共享文件</text><rect x="58" y="457" width="228" height="42" rx="6" fill="#20262d" stroke="none" stroke-width="1" /><g><rect x="78.88" y="469.24" width="12.24" height="11.52" rx="1.8" fill="none" stroke="#d7dde2" stroke-width="1.8" /><line x1="81.04" y1="475.54" x2="83.56" y2="478.24" stroke="#d7dde2" stroke-width="1.8" /><line x1="83.56" y1="478.24" x2="86.44" y2="478.24" stroke="#d7dde2" stroke-width="1.8" /><line x1="86.44" y1="478.24" x2="88.96" y2="475.54" stroke="#d7dde2" stroke-width="1.8" /></g><text x="106" y="480" font-family="Inter, -apple-system, BlinkMacSystemFont, Segoe UI, Microsoft YaHei, PingFang SC, Noto Sans CJK SC, Arial, sans-serif" font-size="14" font-weight="500" fill="#d7dde2" text-anchor="start" >投递箱</text><rect x="58" y="505" width="228" height="42" rx="6" fill="#ffffff" stroke="none" stroke-width="1" /><g><circle cx="85" cy="523" r="3.2399999999999998" fill="none" stroke="#0f8f8c" stroke-width="1.8"/><path d="M 85 516.16 V 518.5 M 85 527.5 V 529.84 M 78.16 523 H 80.5 M 89.5 523 H 91.84 M 80.14 518.14 L 81.76 519.76 M 88.24 526.24 L 89.86 527.86 M 89.86 518.14 L 88.24 519.76 M 81.76 526.24 L 80.14 527.86" fill="none" stroke="#0f8f8c" stroke-width="1.7" stroke-linecap="round" stroke-linejoin="round" /></g><text x="106" y="528" font-family="Inter, -apple-system, BlinkMacSystemFont, Segoe UI, Microsoft YaHei, PingFang SC, Noto Sans CJK SC, Arial, sans-serif" font-size="14" font-weight="760" fill="#1f2933" text-anchor="start" >设置</text>
    <line x1="66" y1="666" x2="278" y2="666" stroke="#3b424b" stroke-width="1" />
    <text x="70" y="700" font-family="Inter, -apple-system, BlinkMacSystemFont, Segoe UI, Microsoft YaHei, PingFang SC, Noto Sans CJK SC, Arial, sans-serif" font-size="11" font-weight="600" fill="#9aa6b2" text-anchor="start" >发现方式</text>
    <text x="70" y="725" font-family="Inter, -apple-system, BlinkMacSystemFont, Segoe UI, Microsoft YaHei, PingFang SC, Noto Sans CJK SC, Arial, sans-serif" font-size="13" font-weight="500" fill="#d7dde2" text-anchor="start" >自动广播 + 手动 IP</text>
    <text x="70" y="750" font-family="Inter, -apple-system, BlinkMacSystemFont, Segoe UI, Microsoft YaHei, PingFang SC, Noto Sans CJK SC, Arial, sans-serif" font-size="12" font-weight="400" fill="#9aa6b2" text-anchor="start" >监听端口 8787</text>
    <rect x="302" y="158" width="936" height="620" rx="0" fill="#fbfcfd" stroke="none" stroke-width="1" />
    <text x="330" y="204" font-family="Inter, -apple-system, BlinkMacSystemFont, Segoe UI, Microsoft YaHei, PingFang SC, Noto Sans CJK SC, Arial, sans-serif" font-size="22" font-weight="760" fill="#1f2933" text-anchor="start" >设置</text><text x="330" y="230" font-family="Inter, -apple-system, BlinkMacSystemFont, Segoe UI, Microsoft YaHei, PingFang SC, Noto Sans CJK SC, Arial, sans-serif" font-size="12" font-weight="400" fill="#66727c" text-anchor="start" >常规设置与网络发现配置即时写入本地数据库。</text>
    <rect x="1026" y="182" width="64" height="28" rx="14" fill="#f7f9fa" stroke="#d8dee3" stroke-width="1" />
    <text x="1058" y="200.68" font-family="Inter, -apple-system, BlinkMacSystemFont, Segoe UI, Microsoft YaHei, PingFang SC, Noto Sans CJK SC, Arial, sans-serif" font-size="13" font-weight="600" fill="#263238" text-anchor="middle" >常规</text>
    <rect x="1100" y="182" width="64" height="28" rx="14" fill="#20262d" stroke="#20262d" stroke-width="1" />
    <text x="1132" y="200.68" font-family="Inter, -apple-system, BlinkMacSystemFont, Segoe UI, Microsoft YaHei, PingFang SC, Noto Sans CJK SC, Arial, sans-serif" font-size="13" font-weight="600" fill="#fff" text-anchor="middle" >网络</text>
    <rect x="1174" y="180" width="62" height="36" rx="6" fill="#ffffff" stroke="#d8dee3" stroke-width="1" />
    <g><path d="M 1189.88 195.84 C 1193.48 192.6 1198.52 192.6 1202.12 195.84 M 1192.04 198.36 C 1194.2 196.56 1197.8 196.56 1199.96 198.36 M 1194.56 200.88 C 1195.46 200.16 1196.54 200.16 1197.44 200.88" fill="none" stroke="#263238" stroke-width="1.9" stroke-linecap="round" stroke-linejoin="round" /><circle cx="1196" cy="203.04" r="0.6300000000000001" fill="#263238" stroke="#263238" stroke-width="1"/></g>
    <text x="1212" y="203" font-family="Inter, -apple-system, BlinkMacSystemFont, Segoe UI, Microsoft YaHei, PingFang SC, Noto Sans CJK SC, Arial, sans-serif" font-size="13" font-weight="650" fill="#263238" text-anchor="start" >诊断</text>
    <rect x="330" y="250" width="420" height="462" rx="8" fill="#ffffff" stroke="#d8dee3" stroke-width="1" />
    <text x="360" y="290" font-family="Inter, -apple-system, BlinkMacSystemFont, Segoe UI, Microsoft YaHei, PingFang SC, Noto Sans CJK SC, Arial, sans-serif" font-size="17" font-weight="760" fill="#1f2933" text-anchor="start" >常规</text>
    <text x="360" y="332" font-family="Inter, -apple-system, BlinkMacSystemFont, Segoe UI, Microsoft YaHei, PingFang SC, Noto Sans CJK SC, Arial, sans-serif" font-size="12" font-weight="700" fill="#263238" text-anchor="start" >昵称</text>
    <rect x="360" y="346" width="330" height="38" rx="6" fill="#fff" stroke="#d8dee3" stroke-width="1" />
    <text x="376" y="370" font-family="Inter, -apple-system, BlinkMacSystemFont, Segoe UI, Microsoft YaHei, PingFang SC, Noto Sans CJK SC, Arial, sans-serif" font-size="13" font-weight="500" fill="#1f2933" text-anchor="start" >Lily-PC</text>
    <text x="360" y="416" font-family="Inter, -apple-system, BlinkMacSystemFont, Segoe UI, Microsoft YaHei, PingFang SC, Noto Sans CJK SC, Arial, sans-serif" font-size="12" font-weight="700" fill="#263238" text-anchor="start" >默认下载目录</text>
    <rect x="360" y="430" width="248" height="38" rx="6" fill="#fff" stroke="#d8dee3" stroke-width="1" />
    <text x="376" y="454" font-family="Inter, -apple-system, BlinkMacSystemFont, Segoe UI, Microsoft YaHei, PingFang SC, Noto Sans CJK SC, Arial, sans-serif" font-size="12" font-weight="400" fill="#66727c" text-anchor="start" >D:/Downloads/FengSui</text>
    <rect x="620" y="430" width="70" height="38" rx="6" fill="#ffffff" stroke="#d8dee3" stroke-width="1" />
    
    <text x="655" y="454" font-family="Inter, -apple-system, BlinkMacSystemFont, Segoe UI, Microsoft YaHei, PingFang SC, Noto Sans CJK SC, Arial, sans-serif" font-size="13" font-weight="650" fill="#263238" text-anchor="middle" >浏览</text>
    <text x="360" y="512" font-family="Inter, -apple-system, BlinkMacSystemFont, Segoe UI, Microsoft YaHei, PingFang SC, Noto Sans CJK SC, Arial, sans-serif" font-size="13" font-weight="650" fill="#263238" text-anchor="start" >开机启动</text><rect x="644" y="496" width="46" height="24" rx="12" fill="#cdd5dc" stroke="none" stroke-width="1" />
    <circle cx="656" cy="508" r="9" fill="#fff" stroke="rgba(31,41,51,.12)" stroke-width="1"/>
    <text x="360" y="562" font-family="Inter, -apple-system, BlinkMacSystemFont, Segoe UI, Microsoft YaHei, PingFang SC, Noto Sans CJK SC, Arial, sans-serif" font-size="13" font-weight="650" fill="#263238" text-anchor="start" >最小化到托盘</text><rect x="644" y="546" width="46" height="24" rx="12" fill="#0f8f8c" stroke="none" stroke-width="1" />
    <circle cx="678" cy="558" r="9" fill="#fff" stroke="rgba(31,41,51,.12)" stroke-width="1"/>
    <rect x="780" y="250" width="440" height="462" rx="8" fill="#ffffff" stroke="#d8dee3" stroke-width="1" />
    <text x="810" y="290" font-family="Inter, -apple-system, BlinkMacSystemFont, Segoe UI, Microsoft YaHei, PingFang SC, Noto Sans CJK SC, Arial, sans-serif" font-size="17" font-weight="760" fill="#1f2933" text-anchor="start" >网络</text>
    <text x="810" y="332" font-family="Inter, -apple-system, BlinkMacSystemFont, Segoe UI, Microsoft YaHei, PingFang SC, Noto Sans CJK SC, Arial, sans-serif" font-size="13" font-weight="650" fill="#263238" text-anchor="start" >启用局域网设备自动发现</text><rect x="1124" y="316" width="46" height="24" rx="12" fill="#0f8f8c" stroke="none" stroke-width="1" />
    <circle cx="1158" cy="328" r="9" fill="#fff" stroke="rgba(31,41,51,.12)" stroke-width="1"/>
    <text x="810" y="384" font-family="Inter, -apple-system, BlinkMacSystemFont, Segoe UI, Microsoft YaHei, PingFang SC, Noto Sans CJK SC, Arial, sans-serif" font-size="12" font-weight="700" fill="#263238" text-anchor="start" >监听端口</text>
    <rect x="810" y="398" width="130" height="38" rx="6" fill="#fff" stroke="#d8dee3" stroke-width="1" />
    <text x="826" y="422" font-family="Inter, -apple-system, BlinkMacSystemFont, Segoe UI, Microsoft YaHei, PingFang SC, Noto Sans CJK SC, Arial, sans-serif" font-size="13" font-weight="500" fill="#1f2933" text-anchor="start" >8787</text>
    <rect x="954" y="404" width="156" height="28" rx="14" fill="#fff4db" stroke="#f3d38a" stroke-width="1" />
    <text x="1032" y="421.96" font-family="Inter, -apple-system, BlinkMacSystemFont, Segoe UI, Microsoft YaHei, PingFang SC, Noto Sans CJK SC, Arial, sans-serif" font-size="11" font-weight="600" fill="#b7791f" text-anchor="middle" >修改后需重启网络服务</text>
    <text x="810" y="478" font-family="Inter, -apple-system, BlinkMacSystemFont, Segoe UI, Microsoft YaHei, PingFang SC, Noto Sans CJK SC, Arial, sans-serif" font-size="12" font-weight="700" fill="#263238" text-anchor="start" >手动添加 IP</text>
    <rect x="810" y="492" width="180" height="38" rx="6" fill="#fff" stroke="#d8dee3" stroke-width="1" />
    <text x="826" y="516" font-family="Inter, -apple-system, BlinkMacSystemFont, Segoe UI, Microsoft YaHei, PingFang SC, Noto Sans CJK SC, Arial, sans-serif" font-size="13" font-weight="400" fill="#66727c" text-anchor="start" >192.168.10.88</text>
    <rect x="1002" y="492" width="76" height="38" rx="6" fill="#fff" stroke="#d8dee3" stroke-width="1" />
    <text x="1018" y="516" font-family="Inter, -apple-system, BlinkMacSystemFont, Segoe UI, Microsoft YaHei, PingFang SC, Noto Sans CJK SC, Arial, sans-serif" font-size="13" font-weight="400" fill="#66727c" text-anchor="start" >8787</text>
    <rect x="1092" y="492" width="88" height="38" rx="6" fill="#0f8f8c" stroke="#0f8f8c" stroke-width="1" />
    <g><line x1="1114" y1="505.6" x2="1114" y2="516.4" stroke="#fff" stroke-width="1.8" /><line x1="1108.6" y1="511" x2="1119.4" y2="511" stroke="#fff" stroke-width="1.8" /></g>
    <text x="1130" y="516" font-family="Inter, -apple-system, BlinkMacSystemFont, Segoe UI, Microsoft YaHei, PingFang SC, Noto Sans CJK SC, Arial, sans-serif" font-size="13" font-weight="650" fill="#fff" text-anchor="start" >添加</text>
  
  
</svg>